<svg xmlns="http://www.w3.org/2000/svg" style="display:none">
<symbol id="mastodon" viewBox="0 0 74 79"><path d="M73.7014 17.4323C72.5616 9.05152 65.1774 2.4469 56.424 1.1671C54.9472 0.950843 49.3518 0.163818 36.3901 0.163818H36.2933C23.3281 0.163818 20.5465 0.950843 19.0697 1.1671C10.56 2.41145 2.78877 8.34604 0.903306 16.826C-0.00357854 21.0022 -0.100361 25.6322 0.068112 29.8793C0.308275 35.9699 0.354874 42.0498 0.91406 48.1156C1.30064 52.1448 1.97502 56.1419 2.93215 60.0769C4.72441 67.3445 11.9795 73.3925 19.0876 75.86C26.6979 78.4332 34.8821 78.8603 42.724 77.0937C43.5866 76.8952 44.4398 76.6647 45.2833 76.4024C47.1867 75.8033 49.4199 75.1332 51.0616 73.9562C51.0841 73.9397 51.1026 73.9184 51.1156 73.8938C51.1286 73.8693 51.1359 73.8421 51.1368 73.8144V67.9366C51.1364 67.9107 51.1302 67.8852 51.1186 67.862C51.1069 67.8388 51.0902 67.8184 51.0695 67.8025C51.0489 67.7865 51.0249 67.7753 50.9994 67.7696C50.9738 67.764 50.9473 67.7641 50.9218 67.7699C45.8976 68.9569 40.7491 69.5519 35.5836 69.5425C26.694 69.5425 24.3031 65.3699 23.6184 63.6327C23.0681 62.1314 22.7186 60.5654 22.5789 58.9744C22.5775 58.9477 22.5825 58.921 22.5934 58.8965C22.6043 58.8721 22.621 58.8505 22.6419 58.8336C22.6629 58.8167 22.6876 58.8049 22.714 58.7992C22.7404 58.7934 22.7678 58.794 22.794 58.8007C27.7345 59.9796 32.799 60.5746 37.8813 60.5733C39.1036 60.5733 40.3223 60.5733 41.5447 60.5414C46.6562 60.3996 52.0437 60.1408 57.0728 59.1694C57.1983 59.1446 57.3237 59.1233 57.4313 59.0914C65.3638 57.5847 72.9128 52.8555 73.6799 40.8799C73.7086 40.4084 73.7803 35.9415 73.7803 35.4523C73.7839 33.7896 74.3216 23.6576 73.7014 17.4323ZM61.4925 47.3144H53.1514V27.107C53.1514 22.8528 51.3591 20.6832 47.7136 20.6832C43.7061 20.6832 41.6988 23.2499 41.6988 28.3194V39.3803H33.4078V28.3194C33.4078 23.2499 31.3969 20.6832 27.3894 20.6832C23.7654 20.6832 21.9552 22.8528 21.9516 27.107V47.3144H13.6176V26.4937C13.6176 22.2395 14.7157 18.8598 16.9118 16.3545C19.1772 13.8552 22.1488 12.5719 25.8373 12.5719C30.1064 12.5719 33.3325 14.1955 35.4832 17.4394L37.5587 20.8853L39.6377 17.4394C41.7884 14.1955 45.0145 12.5719 49.2765 12.5719C52.9614 12.5719 55.9329 13.8552 58.2055 16.3545C60.4017 18.8574 61.4997 22.2371 61.4997 26.4937L61.4925 47.3144Z"/></symbol>
<symbol id="note" viewBox="0 0 493 493"><path d="m139.57,142.06c41.19,0,97.6-2.09,138.1-1.04,54.34,1.39,74.76,25.06,75.45,83.53.69,33.06,0,127.73,0,127.73h-58.79c0-82.83.35-96.5,0-122.6-.69-22.97-7.25-33.92-24.9-36.01-18.69-2.09-71.07-.35-71.07-.35v158.96h-58.79v-210.22Z"></path></symbol>
<symbol id="bluesky" viewBox="0 0 568 501"><path d="M123.121 33.6637C188.241 82.5526 258.281 181.681 284 234.873C309.719 181.681 379.759 82.5526 444.879 33.6637C491.866 -1.61183 568 -28.9064 568 57.9464C568 75.2916 558.055 203.659 552.222 224.501C531.947 296.954 458.067 315.434 392.347 304.249C507.222 323.8 536.444 388.56 473.333 453.32C353.473 576.312 301.061 422.461 287.631 383.039C285.169 375.812 284.017 372.431 284 375.306C283.983 372.431 282.831 375.812 280.369 383.039C266.939 422.461 214.527 576.312 94.6667 453.32C31.5556 388.56 60.7778 323.8 175.653 304.249C109.933 315.434 36.0535 296.954 15.7778 224.501C9.94525 203.659 0 75.2916 0 57.9464C0 -28.9064 76.1345 -1.61183 123.121 33.6637Z"/></symbol>
<symbol id="github" viewBox="0 -0.5 25 25"><path d="m12.301 0h.093c2.242 0 4.34.613 6.137 1.68l-.055-.031c1.871 1.094 3.386 2.609 4.449 4.422l.031.058c1.04 1.769 1.654 3.896 1.654 6.166 0 5.406-3.483 10-8.327 11.658l-.087.026c-.063.02-.135.031-.209.031-.162 0-.312-.054-.433-.144l.002.001c-.128-.115-.208-.281-.208-.466 0-.005 0-.01 0-.014v.001q0-.048.008-1.226t.008-2.154c.007-.075.011-.161.011-.249 0-.792-.323-1.508-.844-2.025.618-.061 1.176-.163 1.718-.305l-.076.017c.573-.16 1.073-.373 1.537-.642l-.031.017c.508-.28.938-.636 1.292-1.058l.006-.007c.372-.476.663-1.036.84-1.645l.009-.035c.209-.683.329-1.468.329-2.281 0-.045 0-.091-.001-.136v.007c0-.022.001-.047.001-.072 0-1.248-.482-2.383-1.269-3.23l.003.003c.168-.44.265-.948.265-1.479 0-.649-.145-1.263-.404-1.814l.011.026c-.115-.022-.246-.035-.381-.035-.334 0-.649.078-.929.216l.012-.005c-.568.21-1.054.448-1.512.726l.038-.022-.609.384c-.922-.264-1.981-.416-3.075-.416s-2.153.152-3.157.436l.081-.02q-.256-.176-.681-.433c-.373-.214-.814-.421-1.272-.595l-.066-.022c-.293-.154-.64-.244-1.009-.244-.124 0-.246.01-.364.03l.013-.002c-.248.524-.393 1.139-.393 1.788 0 .531.097 1.04.275 1.509l-.01-.029c-.785.844-1.266 1.979-1.266 3.227 0 .025 0 .051.001.076v-.004c-.001.039-.001.084-.001.13 0 .809.12 1.591.344 2.327l-.015-.057c.189.643.476 1.202.85 1.693l-.009-.013c.354.435.782.793 1.267 1.062l.022.011c.432.252.933.465 1.46.614l.046.011c.466.125 1.024.227 1.595.284l.046.004c-.431.428-.718 1-.784 1.638l-.001.012c-.207.101-.448.183-.699.236l-.021.004c-.256.051-.549.08-.85.08-.022 0-.044 0-.066 0h.003c-.394-.008-.756-.136-1.055-.348l.006.004c-.371-.259-.671-.595-.881-.986l-.007-.015c-.198-.336-.459-.614-.768-.827l-.009-.006c-.225-.169-.49-.301-.776-.38l-.016-.004-.32-.048c-.023-.002-.05-.003-.077-.003-.14 0-.273.028-.394.077l.007-.003q-.128.072-.08.184c.039.086.087.16.145.225l-.001-.001c.061.072.13.135.205.19l.003.002.112.08c.283.148.516.354.693.603l.004.006c.191.237.359.505.494.792l.01.024.16.368c.135.402.38.738.7.981l.005.004c.3.234.662.402 1.057.478l.016.002c.33.064.714.104 1.106.112h.007c.045.002.097.002.15.002.261 0 .517-.021.767-.062l-.027.004.368-.064q0 .609.008 1.418t.008.873v.014c0 .185-.08.351-.208.466h-.001c-.119.089-.268.143-.431.143-.075 0-.147-.011-.214-.032l.005.001c-4.929-1.689-8.409-6.283-8.409-11.69 0-2.268.612-4.393 1.681-6.219l-.032.058c1.094-1.871 2.609-3.386 4.422-4.449l.058-.031c1.739-1.034 3.835-1.645 6.073-1.645h.098-.005zm-7.64 17.666q.048-.112-.112-.192-.16-.048-.208.032-.048.112.112.192.144.096.208-.032zm.497.545q.112-.08-.032-.256-.16-.144-.256-.048-.112.08.032.256.159.157.256.047zm.48.72q.144-.112 0-.304-.128-.208-.272-.096-.144.08 0 .288t.272.112zm.672.673q.128-.128-.064-.304-.192-.192-.32-.048-.144.128.064.304.192.192.32.044zm.913.4q.048-.176-.208-.256-.24-.064-.304.112t.208.24q.24.097.304-.096zm1.009.08q0-.208-.272-.176-.256 0-.256.176 0 .208.272.176.256.001.256-.175zm.929-.16q-.032-.176-.288-.144-.256.048-.224.24t.288.128.225-.224z"/></symbol>
<symbol id="twitter" viewBox="0 0 1200 1227"><path d="M714.163 519.284L1160.89 0H1055.03L667.137 450.887L357.328 0H0L468.492 681.821L0 1226.37H105.866L515.491 750.218L842.672 1226.37H1200L714.137 519.284H714.163ZM569.165 687.828L521.697 619.934L144.011 79.6944H306.615L611.412 515.685L658.88 583.579L1055.08 1150.3H892.476L569.165 687.854V687.828Z"/></symbol>
<symbol id="rss" viewBox="-10 -5 1034 1034"><path d="M75 175v170q135 0 260 52t220.5 147.5t147.5 220.5t52 260h170q0 -169 -64.5 -325t-184.5 -275.5t-276 -184.5t-325 -65zM75 462v165q79 0 152.5 30.5t129.5 86.5t86 129t30 152h165q0 -112 -42.5 -215.5t-122 -182.5t-183 -122t-215.5 -43zM192 792q-32 0 -59 16 t-42.5 42.5t-15.5 58.5t15.5 58.5t42.5 42t58.5 15.5t58.5 -15.5t42.5 -42t15.5 -58.5t-15.5 -58.5t-42.5 -42.5t-58 -16z" /></symbol>
</svg>